# AST/ASF file generated using VICON BodyLanguage
# -----------------------------------------------
:version 1.10
:name VICON
:units
  mass 1.0
  length 0.45
  angle deg
:documentation
   .ast/.asf automatically generated from VICON data using
   VICON BodyBuilder and BodyLanguage model FoxedUp or BRILLIANT.MOD
:root
   order TX TY TZ RX RY RZ
   axis XYZ
   position 0 0 0  
   orientation 0 0 0 
:bonedata
  begin
     id 1 
     name lhipjoint
     direction 0.603808 -0.713975 0.35448 
     length 2.2025 
     axis 0 0 0  XYZ
  end
  begin
     id 2 
     name lfemur
     direction 0.34202 -0.939693 0  
     length 6.55877  
     axis 0 0 20  XYZ
    dof rx ry rz
    limits (-160.0 20.0)
           (-70.0 70.0)
           (-60.0 70.0)
  end
  begin
     id 3 
     name ltibia
     direction 0.34202 -0.939693 0   
     length 6.80302   
     axis 0 0 20   XYZ
    dof rx
    limits (-10.0 170.0)
  end
  begin
     id 4 
     name lfoot
     direction 0.091848 -0.25235 0.963267   
     length 2.03446   
     axis -90 7.62852e-016 20   XYZ
    dof rx rz
    limits (-45.0 90.0)
           (-70.0 20.0)
  end
  begin
     id 5 
     name ltoes
     direction 1.53608e-011 -4.21925e-011 1   
     length 1.02033   
     axis -90 7.62852e-016 20   XYZ
    dof rx
    limits (-90.0 20.0)
  end
  begin
     id 6 
     name rhipjoint
     direction -0.587285 -0.724947 0.359928   
     length 2.16916  
     axis 0 0 0  XYZ 
  end
  begin
     id 7 
     name rfemur
     direction -0.34202 -0.939693 0   
     length 6.43173   
     axis 0 0 -20   XYZ
    dof rx ry rz
    limits (-160.0 20.0)
           (-70.0 70.0)
           (-70.0 60.0)
  end
  begin
     id 8 
     name rtibia
     direction -0.34202 -0.939693 0   
     length 6.70662   
     axis 0 0 -20   XYZ
    dof rx
    limits (-10.0 170.0)
 end
 begin
     id 9 
     name rfoot
     direction -0.11854 -0.325686 0.938018   
     length 2.0773  
     axis -90 -7.62852e-016 -20   XYZ
    dof rx rz
    limits (-45.0 90.0)
           (-20.0 70.0)
  end
  begin
     id 10 
     name rtoes
     direction -1.53547e-011 -4.21838e-011 1   
     length 1.03267   
     axis -90 -7.62852e-016 -20   XYZ
    dof rx
    limits (-90.0 20.0)
  end
  begin
     id 11 
     name lowerback
     direction -0.0286554 0.999539 0.0100613   
     length 2.08751   
     axis 0 0 0   XYZ
    dof rx ry rz
    limits (-20.0 45.0)
           (-30.0 30.0)
           (-30.0 30.0)
  end
  begin
     id 12 
     name upperback
     direction 0.0227093 0.999705 -0.00860929   
     length 2.08517   
     axis 0 0 0   XYZ
    dof rx ry rz
    limits (-20.0 45.0)
           (-30.0 30.0)
           (-30.0 30.0)
  end
  begin
     id 13 
     name thorax
     direction 0.0351627 0.999285 -0.013892   
     length 2.08412   
     axis 0 0 0   XYZ
    dof rx ry rz
    limits (-20.0 45.0)
           (-30.0 30.0)
           (-30.0 30.0)
  end
  begin
     id 14 
     name lowerneck
     direction -0.0696283 0.997344 0.0213922   
     length 1.44164   
     axis 0 0 0   XYZ
    dof rx ry rz
    limits (-20.0 45.0)
           (-30.0 30.0)
           (-30.0 30.0)
  end
  begin
     id 15 
     name upperneck
     direction 0.0531 0.990412 -0.127531   
     length 1.45022   
     axis 0 0 0   XYZ
    dof rx ry rz
    limits (-20.0 45.0)
           (-30.0 30.0)
           (-30.0 30.0)
  end
  begin
     id 16
     name head
     direction 0.0188154 0.998548 -0.0504727  
     length 1.45845  
     axis 0 0 0   XYZ
    dof rx ry rz
    limits (-20.0 45.0)
           (-30.0 30.0)
           (-30.0 30.0)
  end
  begin
     id 17 
     name lclavicle
     direction 0.961559 0.260051 0.088188  
     length 2.86057  
     axis 0 0 0   XYZ
    dof ry rz
    limits (-20.0 10.0)
           (0.0 20.0)
  end
  begin
     id 18 
     name lhumerus
     direction 1 -4.48959e-011 2.88185e-027   
     length 4.36901   
     axis 180 -30 -90   XYZ
    dof rx ry rz
    limits (-60.0 90.0)
           (-90.0 90.0)
           (-90.0 90.0)
  end
  begin
     id 19
     name lradius
     direction 1 -4.48965e-011 -3.92618e-028   
     length 3.21737   
     axis 180 -30 -90   XYZ
    dof rx
    limits (-10.0 170.0)
  end
  begin
     id 20
     name lwrist
     direction 1 -4.49037e-011 2.57246e-027   
     length 1.60869   
     axis -1.61769e-015 90 90   XYZ
    dof ry
    limits (-180.0 0.0)
 end
  begin
     id 21 
     name lhand
     direction 1 -4.48807e-011 5.12958e-027   
     length 0.564313   
     axis -3.27988e-015 90 90   XYZ
    dof rx rz
    limits (-90.0 90.0)
           (-45.0 45.0)
  end
  begin
     id 22 
     name lfingers
     direction 1 -4.48879e-011 1.02687e-026   
     length 0.454963   
     axis -6.5598e-015 90 90   XYZ
    dof rx
    limits (0.0 90.0)
  end
  begin
     id 23
     name lthumb
     direction 0.707107 -6.3475e-011 0.707107   
     length 0.653239   
     axis -90 45 2.19363e-014   XYZ
    dof rx rz
    limits (-45.0 45.0)
           (-45.0 45.0)
  end
  begin
     id 24 
     name rclavicle
     direction -0.954677 0.253915 0.155304   
     length 3.11497  
     axis 0 0 0   XYZ 
    dof ry rz
    limits (-10.0 20.0)
           (-20.0 0.0)
  end
  begin
     id 25 
     name rhumerus
     direction -1 -4.48958e-011 -8.20169e-028  
     length 4.34118   
     axis 180 30 90   XYZ
    dof rx ry rz
    limits (-90.0 60.0)
           (-90.0 90.0)
           (-90.0 90.0)
  end
  begin
     id 26 
     name rradius
     direction -1 -4.48978e-011 1.5676e-027   
     length 3.09531   
     axis 180 30 90   XYZ
    dof rx
    limits (-10.0 170.0)
  end
  begin
     id 27 
     name rwrist
     direction -1 -4.49001e-011 2.57123e-027   
     length 1.54765   
     axis -1.61769e-015 -90 -90   XYZ
    dof ry
    limits (-180.0 0.0)
  end
  begin
     id 28
     name rhand
     direction -1 -4.48847e-011 5.13225e-027   
     length 0.597446   
     axis -3.27988e-015 -90 -90   XYZ
    dof rx rz
    limits (-90.0 90.0)
           (-45.0 45.0)
  end
  begin
     id 29
     name rfingers
     direction -1 -4.49094e-011 1.02974e-026   
     length 0.481677   
     axis -6.5598e-015 -90 -90   XYZ
    dof rx
    limits (0.0 90.0)
  end
  begin
     id 30
     name rthumb
     direction -0.707107 -6.34859e-011 0.707107   
     length 0.691594   
     axis -90 -45 -2.19363e-014   XYZ
    dof rx rz
    limits (-45.0 45.0)
           (-45.0 45.0)
  end
:hierarchy
  begin
    root lhipjoint rhipjoint lowerback
    lhipjoint lfemur
    lfemur ltibia
    ltibia lfoot
    lfoot ltoes
    rhipjoint rfemur
    rfemur rtibia
    rtibia rfoot
    rfoot rtoes
    lowerback upperback
    upperback thorax
    thorax lowerneck lclavicle rclavicle
    lowerneck upperneck
    upperneck head
    lclavicle lhumerus
    lhumerus lradius
    lradius lwrist
    lwrist lhand lthumb
    lhand lfingers
    rclavicle rhumerus
    rhumerus rradius
    rradius rwrist
    rwrist rhand rthumb
    rhand rfingers
  end

#!OML:ASF I:\Acrobat_Osman\acrobat\cartwheel_test 2\Patient 1\Session 1\acrobat.ASF
:FULLY-SPECIFIED
:DEGREES
95
root 6.25065 13.6769 9.71654 19.153 -2.27557 -4.13432
lowerback 4.95694 3.18894 -3.46974
upperback 4.31586 4.11619 -0.837562
thorax 1.49135 1.98118 0.924013
lowerneck -5.07634 -1.84806 -5.29599
upperneck -8.2239 -1.70419 10.932
head -1.60848 -0.857175 4.59883
rclavicle -6.24184e-014 3.22031e-014
rhumerus -41.6093 17.5844 -89.6862
rradius 84.3458
rwrist -5.11476
rhand -23.6054 30.9713
rfingers 7.12502
rthumb 2.85847 1.01071
lclavicle -6.24184e-014 3.22031e-014
lhumerus -32.3402 -6.52841 74.7141
lradius 84.5708
lwrist 25.256
lhand -20.036 46.5495
lfingers 7.12502
lthumb 6.30503 76.4356
rfemur -21.0413 -4.62811 14.9819
rtibia 87.1777
rfoot -11.1296 -8.87233
rtoes -21.0908
lfemur -67.2192 10.4513 -23.5802
ltibia 82.07
lfoot -20.9484 8.3025
ltoes -15.1714
96
root 6.25647 13.6574 9.79286 17.866 -2.17733 -3.25204
lowerback 6.2325 2.79002 -3.83946
upperback 4.9216 3.52375 -0.592616
thorax 1.40031 1.66768 1.35878
lowerneck -4.80039 -1.40249 -4.96797
upperneck -8.28912 -1.13991 10.4458
head -1.73424 -0.586375 4.36612
rclavicle -5.88403e-014 1.59028e-014
rhumerus -41.193 15.0979 -87.4985
rradius 82.6309
rwrist -3.21112
rhand -24.6729 31.2566
rfingers 7.12502
rthumb 1.82747 1.28471
lclavicle -5.88403e-014 1.59028e-014
lhumerus -29.7138 -5.93727 74.8971
lradius 84.366
lwrist 24.1652
lhand -20.6755 46.9029
lfingers 7.12502
lthumb 5.68765 76.8066
rfemur -23.1142 -5.5892 13.0563
rtibia 89.9037
rfoot -12.4993 -9.30184
rtoes -20.6943
lfemur -65.2951 10.1324 -24.2669
ltibia 82.3723
lfoot -21.7666 9.01404
ltoes -16.0696
97
root 6.2598 13.6369 9.83063 17.4308 -2.78479 -2.74948
lowerback 6.91905 2.60795 -4.08179
upperback 5.27037 3.24205 -0.322311
thorax 1.37041 1.51219 1.76494
lowerneck -4.5689 -0.927962 -4.60889
upperneck -8.42178 -0.540891 9.79068
head -1.87105 -0.295768 4.0665
rclavicle 2.24627e-014 -1.59028e-014
rhumerus -40.9509 13.3775 -85.2905
rradius 81.7029
rwrist -2.96688
rhand -24.7928 31.436
rfingers 7.12502
rthumb 1.7117 1.46311
lclavicle 2.24627e-014 -1.59028e-014
lhumerus -27.2191 -5.80665 75.259
lradius 85.0294
lwrist 24.6988
lhand -21.8467 47.9031
lfingers 7.12502
lthumb 4.55682 77.834
rfemur -26.9865 -5.7727 11.6028
rtibia 92.116
rfoot -14.1817 -8.54389
rtoes -19.8467
lfemur -64.6223 10.3656 -24.9022
ltibia 82.4736
lfoot -22.0302 9.72253
ltoes -16.75
98
root 6.26101 13.647 9.84982 17.2144 -3.21806 -2.26012
lowerback 7.66273 2.35019 -4.19103
upperback 5.50482 2.8601 -0.00714486
thorax 1.20722 1.3131 2.15048
lowerneck -4.32155 -0.398958 -4.26721
upperneck -8.52127 0.12315 9.04306
head -1.99642 0.0307026 3.73758
rclavicle 3.22031e-014 -1.80894e-014
rhumerus -41.0319 12.2992 -83.2772
rradius 81.4066
rwrist -4.51594
rhand -24.616 31.1546
rfingers 7.12502
rthumb 1.8824 1.18316
lclavicle 3.22031e-014 -1.80894e-014
lhumerus -24.7877 -5.88742 75.6078
lradius 85.7328
lwrist 25.6795
lhand -22.1985 48.2078
lfingers 7.12502
lthumb 4.21709 78.1458
rfemur -31.3212 -5.98913 10.5357
rtibia 93.2543
rfoot -15.353 -8.51133
rtoes -19.401
lfemur -64.1027 10.4478 -25.4557
ltibia 82.1768
lfoot -22.0272 9.94577
ltoes -16.3966
99
root 6.25904 13.6895 9.85699 17.2262 -3.67212 -1.89293
lowerback 8.41785 2.10688 -4.08191
upperback 5.63976 2.50885 0.308405
thorax 0.946847 1.13823 2.41719
lowerneck -4.06716 0.136285 -3.86666
upperneck -8.64486 0.789105 8.20934
head -2.12064 0.358663 3.36847
rclavicle 3.19049e-014 -8.15017e-015
rhumerus -41.2206 11.6141 -81.4284
rradius 81.4308
rwrist -6.89146
rhand -24.0074 30.4739
rfingers 7.12502
rthumb 2.47024 0.508438
lclavicle 3.19049e-014 -8.15017e-015
lhumerus -22.3587 -6.68011 75.9982
lradius 86.7471
lwrist 28.0156
lhand -23.0645 47.8226
lfingers 7.12502
lthumb 3.38079 77.7755
rfemur -36.0258 -5.97893 9.94765
rtibia 93.3538
rfoot -17.4669 -8.808
rtoes -22.8466
lfemur -63.6967 10.6438 -25.8809
ltibia 81.6074
lfoot -21.8413 9.81305
ltoes -15.8248
100
root 6.24767 13.7645 9.85784 17.4063 -4.04235 -1.8155
lowerback 8.95425 1.85954 -3.66329
upperback 5.97249 2.19063 0.719799
thorax 1.02006 0.976414 2.62416
lowerneck -4.20796 0.653884 -3.51811
upperneck -8.85142 1.44152 7.35383
head -2.1915 0.690017 3.00433
rclavicle -1.52319e-014 -9.98893e-015
rhumerus -40.8609 11.1446 -79.5593
rradius 81.4938
rwrist -9.09358
rhand -23.1313 29.5588
rfingers 7.12502
rthumb 3.31628 -0.395152
lclavicle -1.52319e-014 -9.98893e-015
lhumerus -19.4413 -7.61873 76.1905
lradius 87.6379
lwrist 30.1023
lhand -22.9075 46.8671
lfingers 7.12502
lthumb 3.53242 76.8176
rfemur -40.7548 -5.62313 10.0165
rtibia 92.2249
rfoot -19.4074 -9.63435
rtoes -24.2064
lfemur -63.396 11.0101 -25.9634
ltibia 80.7273
lfoot -21.4373 9.27431
ltoes -15.1511
101
root 6.23225 13.8784 9.85103 17.699 -4.28199 -1.75
lowerback 9.37706 1.62758 -3.14971
upperback 6.50543 1.90826 1.1938
thorax 1.36456 0.826455 2.84914
lowerneck -4.65995 1.1025 -3.31399
upperneck -9.15965 2.01376 6.5322
head -2.23071 0.990091 2.68475
rclavicle -1.28713e-014 -4.12478e-015
rhumerus -39.9393 10.5277 -77.6521
rradius 81.2829
rwrist -10.3472
rhand -22.7155 29.4897
rfingers 7.12502
rthumb 3.71783 -0.457647
lclavicle -1.28713e-014 -4.12478e-015
lhumerus -16.1388 -8.78966 76.3566
lradius 88.5719
lwrist 31.6627
lhand -22.835 45.7202
lfingers 7.12502
lthumb 3.60241 75.6695
rfemur -45.3473 -5.03556 10.2007
rtibia 89.8375
rfoot -21.254 -10.3571
rtoes -23.3522
lfemur -63.0797 11.4155 -26.0244
ltibia 79.4069
lfoot -20.6688 8.49166
ltoes -15.2804
102
root 6.21745 14.0306 9.83608 18.1324 -4.44035 -1.39135
lowerback 10.1749 1.38737 -2.74414
upperback 6.62379 1.59815 1.53094
thorax 1.07595 0.679937 2.98289
lowerneck -4.28297 1.52103 -2.87698
upperneck -9.67546 2.52344 5.61645
head -2.46993 1.23798 2.29401
rclavicle -2.78299e-015 1.05356e-014
rhumerus -39.5624 9.97792 -76.0839
rradius 80.9528
rwrist -10.6808
rhand -22.9789 30.0445
rfingers 7.12502
rthumb 3.46347 0.0929075
lclavicle -2.78299e-015 1.05356e-014
lhumerus -13.5359 -10.4062 76.3838
lradius 89.61
lwrist 31.8773
lhand -21.8219 44.8658
lfingers 7.12502
lthumb 4.58077 74.7962
rfemur -49.6322 -4.49528 10.0887
rtibia 86.2496
rfoot -22.6246 -10.8134
rtoes -21.9003
lfemur -62.6937 11.7417 -26.3962
ltibia 77.6119
lfoot -19.6438 7.39218
ltoes -15.8134
103
root 6.19597 14.2067 9.81905 18.7651 -4.51544 -0.862867
lowerback 11.0654 1.13405 -2.42741
upperback 6.5091 1.27195 1.77929
thorax 0.49634 0.531907 3.07908
lowerneck -3.72127 1.94961 -2.27513
upperneck -10.1909 3.03295 4.6359
head -2.73072 1.48231 1.8525
rclavicle 1.98785e-015 -1.03368e-014
rhumerus -39.3773 9.57555 -74.7011
rradius 80.6227
rwrist -10.6599
rhand -23.3554 30.1197
rfingers 7.12502
rthumb 3.09992 0.162529
lclavicle 1.98785e-015 -1.03368e-014
lhumerus -11.2561 -12.6205 76.2131
lradius 90.7652
lwrist 31.5718
lhand -20.99 44.3917
lfingers 7.12502
lthumb 5.38396 74.3033
rfemur -53.4853 -3.84022 9.74021
rtibia 81.5745
rfoot -23.3855 -11.315
rtoes -22.6561
lfemur -62.3413 12.0336 -26.8996
ltibia 75.4588
lfoot -18.5427 5.73154
ltoes -15.2192
104
root 6.1666 14.395 9.80374 19.6784 -4.49552 -0.314375
lowerback 11.4302 0.992414 -2.05212
upperback 6.89378 1.11264 2.08793
thorax 0.713926 0.448073 3.20563
lowerneck -5.10273 2.24387 -1.99984
upperneck -10.2003 3.37695 3.78205
head -2.47332 1.68177 1.52936
rclavicle 3.18055e-015 6.36111e-015
rhumerus -38.052 8.63512 -73.0505
rradius 80.0819
rwrist -10.5394
rhand -23.635 29.7695
rfingers 7.12502
rthumb 2.82982 -0.191475
lclavicle 3.18055e-015 6.36111e-015
lhumerus -7.69948 -15.3302 75.7361
lradius 91.9138
lwrist 31.3549
lhand -21.0809 44.1394
lfingers 7.12502
lthumb 5.29623 74.0532
rfemur -56.9821 -2.93245 9.06783
rtibia 76.0235
rfoot -23.4218 -11.0793
rtoes -25.0432
lfemur -62.187 12.3948 -27.4759
ltibia 73.0218
lfoot -17.2837 3.81494
ltoes -15.3958
105
root 6.12791 14.5854 9.78858 20.8784 -4.24618 0.273062
lowerback 11.706 0.768278 -1.72555
upperback 6.83006 0.849819 2.44752
thorax 0.51621 0.323306 3.42247
lowerneck -5.46169 2.58457 -1.55423
upperneck -10.3203 3.75604 2.76242
head -2.42452 1.88133 1.12213
rclavicle -8.74653e-015 -5.1684e-015
rhumerus -37.3607 8.00963 -71.6419
rradius 79.4564
rwrist -10.6496
rhand -23.7309 29.6249
rfingers 7.12502
rthumb 2.73727 -0.337244
lclavicle -8.74653e-015 -5.1684e-015
lhumerus -5.08479 -18.0385 75.3031
lradius 93.4363
lwrist 30.9159
lhand -20.7017 44.0361
lfingers 7.12502
lthumb 5.66238 73.9404
rfemur -60.1162 -1.9045 7.92605
rtibia 69.8964
rfoot -22.6419 -9.6414
rtoes -26.7499
lfemur -62.3499 12.7682 -28.1453
ltibia 70.4768
lfoot -16.0021 1.6085
ltoes -16.9021
106
root 6.07853 14.7712 9.77916 22.0741 -3.79396 0.8693
lowerback 11.9535 0.511852 -1.40901
upperback 6.72658 0.54979 2.84677
thorax 0.29575 0.179886 3.6937
lowerneck -5.9125 2.86752 -1.13583
upperneck -10.3662 4.05833 1.80241
head -2.33203 2.0419 0.747777
rclavicle -5.1684e-015 -7.15625e-015
rhumerus -36.6389 7.55206 -70.3315
rradius 78.6421
rwrist -11.2089
rhand -23.6364 29.7298
rfingers 7.12502
rthumb 2.82852 -0.23115
lclavicle -5.1684e-015 -7.15625e-015
lhumerus -2.63802 -20.7347 74.8423
lradius 95.1223
lwrist 30.4084
lhand -20.1022 43.3947
lfingers 7.12502
lthumb 6.24119 73.2828
rfemur -62.6038 -0.703493 6.25186
rtibia 63.7163
rfoot -18.6301 -7.92708
rtoes -30.8433
lfemur -62.4876 13.2261 -28.7296
ltibia 67.999
lfoot -14.8811 -1.09347
ltoes -17.551
107
root 6.02047 14.9353 9.78634 22.9631 -3.22881 1.34129
lowerback 12.2555 0.291387 -0.877606
upperback 6.69713 0.321257 3.19927
thorax 0.120069 0.0765959 3.7889
lowerneck -6.51638 3.06188 -0.803631
upperneck -10.1379 4.2632 1.18005
head -2.13107 2.14961 0.505447
rclavicle -2.38542e-015 -1.27222e-014
rhumerus -35.9506 7.13674 -69.1687
rradius 77.6147
rwrist -11.8393
rhand -23.6727 29.9278
rfingers 7.12502
rthumb 2.79349 -0.0336734
lclavicle -2.38542e-015 -1.27222e-014
lhumerus -0.10273 -23.8611 73.997
lradius 96.8228
lwrist 29.9575
lhand -19.7512 42.4348
lfingers 7.12502
lthumb 6.58005 72.3125
rfemur -64.3222 0.70536 4.22603
rtibia 57.9662
rfoot -14.4114 -6.53876
rtoes -32.3399
lfemur -62.1923 13.9834 -29.0545
ltibia 65.6345
lfoot -14.2162 -3.88027
ltoes -18.6136
108
root 5.95187 15.0496 9.81282 23.4621 -2.44445 1.67581
lowerback 12.7279 0.0724523 -0.123241
upperback 6.60244 0.129492 3.5457
thorax -0.218864 -0.001141 3.75011
lowerneck -6.93582 3.13318 -0.493324
upperneck -9.61603 4.31591 0.836478
head -1.87334 2.17452 0.357747
rclavicle 1.43125e-014 4.77083e-015
rhumerus -35.5381 6.92441 -68.0417
rradius 76.3985
rwrist -12.3716
rhand -23.4114 29.9401
rfingers 7.12502
rthumb 3.04576 -0.0178901
lclavicle 1.43125e-014 4.77083e-015
lhumerus 2.47914 -27.475 72.8147
lradius 98.5211
lwrist 29.8575
lhand -19.6291 41.9874
lfingers 7.12502
lthumb 6.69788 71.8614
rfemur -65.607 1.79178 2.60687
rtibia 53.5949
rfoot -9.84349 -6.41402
rtoes -36.2088
lfemur -61.4242 14.8163 -28.9442
ltibia 63.6081
lfoot -14.6532 -6.43421
ltoes -22.1676
109
root 5.87505 15.1384 9.84141 24.0672 -1.06026 2.08491
lowerback 12.6485 -0.292875 0.691975
upperback 6.34636 -0.241711 3.98065
thorax -0.420551 -0.168731 3.79176
lowerneck -7.19271 3.12405 -0.116554
upperneck -8.92528 4.25471 0.507156
head -1.59003 2.13864 0.204387
rclavicle 1.59028e-015 2.14687e-014
rhumerus -35.2953 7.04176 -66.8408
rradius 75.0404
rwrist -12.7162
rhand -23.1757 30.0583
rfingers 7.12502
rthumb 3.27345 0.103705
lclavicle 1.59028e-015 2.14687e-014
lhumerus 5.18284 -31.3434 71.4155
lradius 100.186
lwrist 30.1355
lhand -19.5951 41.7198
lfingers 7.12502
lthumb 6.73067 71.5928
rfemur -66.255 1.91066 1.71516
rtibia 50.6634
rfoot -6.31341 -9.00481
rtoes -35.5077
lfemur -60.7029 15.0075 -28.5086
ltibia 61.8985
lfoot -15.9757 -9.22069
ltoes -26.3382
